<svg width="247" height="247" viewBox="0 0 247 247" fill="none" xmlns="http://www.w3.org/2000/svg">
<circle cx="123.5" cy="123.5" r="123.5" fill="#F8F8F8"/>
<g clip-path="url(#clip0_22_128)">
<path d="M123.132 179.994C126.01 178.802 128.778 177.361 131.403 175.687L141.979 173.9L150.629 172.363C151.907 172.131 153.043 171.406 153.787 170.345C154.532 169.283 154.826 167.972 154.605 166.695L142.096 95.5032C141.957 94.7072 141.887 93.9007 141.888 93.0927V77.538C141.903 76.3444 141.471 75.1881 140.675 74.2963C139.992 73.5487 139.078 73.05 138.078 72.8795L136.88 68.3457C136.263 66.2299 134.428 65.7727 132.15 66.0901L69.4274 73.5558C68.2377 73.6073 67.1136 74.1139 66.289 74.9703C65.4645 75.8266 65.0028 76.9669 65 78.1538V176.386C65.001 177.605 65.4873 178.774 66.3523 179.636C67.2172 180.499 68.3899 180.983 69.6131 180.984L118.132 180.962C119.846 180.966 121.544 180.638 123.132 179.994ZM122.344 177.013C123.054 175.598 123.401 174.028 123.352 172.446C123.246 170.446 122.579 168.516 121.426 166.877C126.956 166.159 132.545 166.009 138.105 166.431C133.53 171.868 126.638 175.283 122.344 177.013ZM67.6534 176.401V78.1689C67.6503 77.6525 67.8522 77.1557 68.2151 76.787C68.5779 76.4183 69.0723 76.2075 69.5904 76.2005L137.271 75.4449C137.53 75.4396 137.788 75.4868 138.028 75.5835C138.269 75.6803 138.487 75.8246 138.67 76.0078C138.854 76.1898 139 76.4064 139.099 76.645C139.199 76.8837 139.25 77.1397 139.25 77.3982V163.873C132.389 163.256 125.479 163.496 118.678 164.587C118.431 164.626 118.2 164.735 118.011 164.899C117.823 165.064 117.685 165.278 117.614 165.517C117.542 165.756 117.539 166.011 117.606 166.251C117.673 166.492 117.807 166.708 117.992 166.877C118.019 166.899 120.6 169.272 120.702 172.544C120.763 174.509 119.944 176.454 118.22 178.34H69.6131C69.0963 178.339 68.6007 178.135 68.2338 177.772C67.8669 177.409 67.6584 176.917 67.6534 176.401Z" fill="#3C4852"/>
<path d="M167.812 148.119C170.347 147.858 172.091 145.425 171.731 142.908L162.816 80.6593C162.507 78.5058 161.664 76.4632 160.363 74.7162L158.028 71.5841C157.885 71.3943 157.693 71.2462 157.473 71.1554C157.253 71.0647 157.012 71.0345 156.776 71.0681C156.54 71.1017 156.318 71.1978 156.132 71.3464C155.946 71.495 155.804 71.6906 155.72 71.9128L154.359 75.5701C153.6 77.6095 153.363 79.8053 153.669 81.959L162.588 144.208C162.762 145.429 164.248 148.481 167.812 148.119ZM156.845 76.4882L157.357 75.1167L158.248 76.2917C159.284 77.6851 159.956 79.3132 160.204 81.0296L168.395 138.22C167.136 138.617 165.818 138.795 164.499 138.749L156.311 81.585C156.064 79.8681 156.248 78.117 156.845 76.4882Z" fill="#FFCC80"/>
<path d="M182.617 78.2904H179.365C177.938 78.2924 176.569 78.8588 175.56 79.8653C174.551 80.8718 173.984 82.2363 173.983 83.6592V87.1578C173.98 87.1716 173.98 87.1856 173.983 87.1993C173.983 87.1993 173.983 87.222 173.983 87.2333V101.628C173.982 101.802 174.016 101.974 174.082 102.135C174.149 102.295 174.247 102.441 174.37 102.564C174.493 102.687 174.64 102.785 174.801 102.851C174.962 102.917 175.135 102.951 175.309 102.951H186.681C187.033 102.951 187.37 102.811 187.619 102.563C187.868 102.315 188.008 101.979 188.008 101.628V87.2296C188.008 87.2296 188.008 87.2069 188.008 87.1956C188.008 87.1842 188.008 87.1691 188.008 87.154V83.6592C188.007 82.235 187.438 80.8694 186.428 79.8627C185.417 78.8559 184.046 78.2904 182.617 78.2904ZM185.347 100.302H176.628V88.8088C178.066 89.0833 179.527 89.2212 180.991 89.2207C182.453 89.2206 183.911 89.0827 185.347 88.8088V100.302Z" fill="#FFCC80"/>
<path d="M131.96 98.8701C132.227 98.8709 132.489 98.7926 132.711 98.6453C132.934 98.4979 133.107 98.2881 133.21 98.0424C133.313 97.7967 133.34 97.5262 133.288 97.265C133.237 97.0038 133.108 96.7638 132.92 96.5753C132.731 96.3869 132.491 96.2584 132.229 96.2062C131.967 96.154 131.695 96.1804 131.449 96.2821C131.202 96.3838 130.991 96.5562 130.842 96.7774C130.694 96.9987 130.615 97.2589 130.615 97.5251C130.615 97.8811 130.756 98.2227 131.009 98.4748C131.261 98.727 131.603 98.8691 131.96 98.8701Z" fill="#FFCC80"/>
<path d="M86.8754 109.57L81.2995 114.848L79.8363 113.461C79.7101 113.342 79.5615 113.248 79.3989 113.185C79.2363 113.123 79.063 113.093 78.8887 113.097C78.7145 113.101 78.5428 113.139 78.3835 113.21C78.2241 113.28 78.0802 113.381 77.96 113.507C77.8398 113.633 77.7456 113.781 77.6828 113.943C77.6201 114.105 77.5899 114.278 77.5941 114.451C77.5984 114.625 77.6369 114.796 77.7074 114.955C77.778 115.114 77.8793 115.257 78.0055 115.377L80.3822 117.644C80.6291 117.876 80.956 118.006 81.2957 118.006C81.6354 118.006 81.9622 117.876 82.2092 117.644L88.7025 111.489C88.8289 111.37 88.9305 111.226 89.0014 111.068C89.0723 110.909 89.1111 110.738 89.1157 110.564C89.1203 110.391 89.0905 110.218 89.028 110.056C88.9656 109.893 88.8717 109.745 88.7517 109.619C88.6318 109.493 88.4881 109.392 88.3289 109.321C88.1696 109.25 87.998 109.212 87.8238 109.207C87.6495 109.203 87.4761 109.232 87.3134 109.294C87.1507 109.357 87.0018 109.45 86.8754 109.57Z" fill="#FFCC80"/>
<path d="M121.438 113.832C121.438 114.182 121.577 114.519 121.826 114.767C122.075 115.015 122.412 115.154 122.764 115.154H128.223C128.574 115.154 128.912 115.015 129.161 114.767C129.41 114.519 129.549 114.182 129.549 113.832C129.549 113.481 129.41 113.145 129.161 112.897C128.912 112.649 128.574 112.509 128.223 112.509H122.764C122.412 112.509 122.075 112.649 121.826 112.897C121.577 113.145 121.438 113.481 121.438 113.832Z" fill="#3C4852"/>
<path d="M97.7578 115.154H114.577C114.928 115.154 115.266 115.015 115.515 114.767C115.764 114.519 115.903 114.182 115.903 113.832C115.903 113.481 115.764 113.145 115.515 112.897C115.266 112.649 114.928 112.509 114.577 112.509H97.7578C97.406 112.509 97.0685 112.649 96.8197 112.897C96.5709 113.145 96.4312 113.481 96.4312 113.832C96.4312 114.182 96.5709 114.519 96.8197 114.767C97.0685 115.015 97.406 115.154 97.7578 115.154Z" fill="#3C4852"/>
<path d="M86.8752 124.418L81.2992 129.696L79.8361 128.31C79.5807 128.066 79.2388 127.934 78.8855 127.942C78.5322 127.949 78.1965 128.097 77.9522 128.351C77.7079 128.606 77.575 128.947 77.5828 129.299C77.5907 129.651 77.7385 129.985 77.9939 130.229L80.3705 132.496C80.6175 132.728 80.9444 132.858 81.2841 132.858C81.6238 132.858 81.9506 132.728 82.1976 132.496L88.7022 126.337C88.8286 126.218 88.9302 126.075 89.0011 125.916C89.072 125.757 89.1109 125.586 89.1154 125.412C89.12 125.239 89.0902 125.066 89.0278 124.904C88.9653 124.742 88.8714 124.593 88.7515 124.467C88.6315 124.341 88.4878 124.24 88.3286 124.169C88.1694 124.099 87.9978 124.06 87.8235 124.055C87.6493 124.051 87.4759 124.08 87.3131 124.143C87.1504 124.205 87.0016 124.299 86.8752 124.418Z" fill="#FFCC80"/>
<path d="M97.7579 130.002H128.223C128.574 130.002 128.912 129.863 129.161 129.615C129.41 129.367 129.549 129.031 129.549 128.68C129.549 128.329 129.41 127.993 129.161 127.745C128.912 127.497 128.574 127.358 128.223 127.358H97.7579C97.406 127.358 97.0685 127.497 96.8197 127.745C96.5709 127.993 96.4312 128.329 96.4312 128.68C96.4312 129.031 96.5709 129.367 96.8197 129.615C97.0685 129.863 97.406 130.002 97.7579 130.002Z" fill="#3C4852"/>
<path d="M86.8754 139.266L81.2995 144.544L79.8363 143.158C79.7101 143.038 79.5615 142.944 79.3989 142.882C79.2363 142.819 79.063 142.789 78.8887 142.793C78.7145 142.797 78.5428 142.836 78.3835 142.906C78.2241 142.976 78.0802 143.077 77.96 143.203C77.8398 143.329 77.7456 143.477 77.6828 143.639C77.6201 143.801 77.5899 143.974 77.5941 144.148C77.5984 144.321 77.6369 144.492 77.7074 144.651C77.778 144.81 77.8793 144.954 78.0055 145.073L80.3822 147.34C80.6291 147.573 80.956 147.702 81.2957 147.702C81.6354 147.702 81.9622 147.573 82.2092 147.34L88.7025 141.186C88.8289 141.066 88.9305 140.923 89.0014 140.764C89.0723 140.605 89.1111 140.434 89.1157 140.261C89.1203 140.087 89.0905 139.914 89.028 139.752C88.9656 139.59 88.8717 139.441 88.7517 139.315C88.6318 139.189 88.4881 139.088 88.3289 139.017C88.1696 138.947 87.998 138.908 87.8238 138.904C87.6495 138.899 87.4761 138.929 87.3134 138.991C87.1507 139.053 87.0018 139.147 86.8754 139.266Z" fill="#FFCC80"/>
<path d="M129.549 143.528C129.549 143.177 129.41 142.841 129.161 142.593C128.912 142.345 128.574 142.206 128.223 142.206H111.165C110.813 142.206 110.476 142.345 110.227 142.593C109.978 142.841 109.838 143.177 109.838 143.528C109.838 143.879 109.978 144.215 110.227 144.463C110.476 144.711 110.813 144.85 111.165 144.85H128.223C128.574 144.85 128.912 144.711 129.161 144.463C129.41 144.215 129.549 143.879 129.549 143.528Z" fill="#3C4852"/>
<path d="M102.693 142.206H97.7657C97.4138 142.206 97.0763 142.345 96.8275 142.593C96.5787 142.841 96.439 143.177 96.439 143.528C96.439 143.879 96.5787 144.215 96.8275 144.463C97.0763 144.711 97.4138 144.85 97.7657 144.85H102.693C103.045 144.85 103.383 144.711 103.632 144.463C103.88 144.215 104.02 143.879 104.02 143.528C104.02 143.177 103.88 142.841 103.632 142.593C103.383 142.345 103.045 142.206 102.693 142.206Z" fill="#3C4852"/>
<path d="M78.8467 81.6341C78.7234 81.5079 78.5761 81.4077 78.4133 81.3392C78.2506 81.2708 78.0757 81.2355 77.8991 81.2355C77.7224 81.2355 77.5476 81.2708 77.3848 81.3392C77.222 81.4077 77.0747 81.5079 76.9514 81.6341L73.7181 84.8908C73.4667 85.1389 73.3245 85.4762 73.3228 85.8287C73.321 86.1812 73.4598 86.52 73.7086 86.7705C73.9574 87.021 74.2959 87.1627 74.6495 87.1645C75.0032 87.1663 75.3431 87.0279 75.5944 86.7799L78.8543 83.5307C78.9815 83.4072 79.0825 83.2595 79.1512 83.0963C79.2199 82.9331 79.255 82.7578 79.2542 82.5808C79.2535 82.4038 79.2171 82.2288 79.1471 82.0661C79.0771 81.9035 78.9749 81.7565 78.8467 81.6341Z" fill="#3C4852"/>
<path d="M112.947 98.889C113.298 98.9002 113.639 98.772 113.896 98.5326C114.152 98.2932 114.303 97.962 114.315 97.6119C114.413 96.0002 114.644 94.3991 115.005 92.825H120.312C120.664 92.825 121.001 92.6857 121.25 92.4377C121.499 92.1897 121.638 91.8534 121.638 91.5026C121.638 91.1519 121.499 90.8156 121.25 90.5676C121.001 90.3196 120.664 90.1803 120.312 90.1803H115.71C116.288 88.2894 117.094 86.4753 118.109 84.7775C118.279 84.4949 118.522 84.2631 118.812 84.1064C119.103 83.9497 119.431 83.874 119.761 83.8871C120.091 83.9003 120.411 84.0018 120.688 84.1811C120.965 84.3604 121.189 84.6108 121.335 84.906C123.246 88.9215 124.388 93.2577 124.701 97.6913C124.732 98.02 124.886 98.3251 125.131 98.5467C125.377 98.7684 125.697 98.8904 126.028 98.889H126.138C126.488 98.8601 126.813 98.694 127.041 98.4271C127.269 98.1602 127.382 97.8141 127.355 97.4646C127.013 92.7 125.781 88.0409 123.723 83.7272C123.369 83.0046 122.826 82.3906 122.151 81.95C121.476 81.5094 120.694 81.2584 119.888 81.2236C119.082 81.1888 118.282 81.3714 117.571 81.7522C116.86 82.1329 116.266 82.6978 115.85 83.3871C111.961 89.7722 111.681 97.2152 111.681 97.5288C111.671 97.8755 111.799 98.2121 112.035 98.4663C112.272 98.7206 112.599 98.8723 112.947 98.889Z" fill="#FFCC80"/>
</g>
<defs>
<clipPath id="clip0_22_128">
<rect width="123" height="115" fill="white" transform="translate(65 66)"/>
</clipPath>
</defs>
</svg>
