<svg width="247" height="247" viewBox="0 0 247 247" fill="none" xmlns="http://www.w3.org/2000/svg">
<circle cx="123.5" cy="123.5" r="123.5" fill="#F8F8F8"/>
<path d="M116.182 92.8413H118.72C119.125 92.8479 119.511 93.0129 119.796 93.3007C120.08 93.5885 120.239 93.9761 120.239 94.3798C120.239 94.7835 120.08 95.171 119.796 95.4589C119.511 95.7467 119.125 95.9117 118.72 95.9183H116.094C115.807 95.9187 115.526 95.8347 115.287 95.6769C115.048 95.519 114.861 95.2943 114.75 95.031C114.599 94.6761 114.313 94.3953 113.954 94.2505C113.595 94.1057 113.194 94.1088 112.837 94.259C112.481 94.4092 112.199 94.6942 112.053 95.0514C111.908 95.4086 111.911 95.8087 112.062 96.1637C112.39 96.9368 112.935 97.5991 113.632 98.0706C114.329 98.542 115.148 98.8027 115.99 98.821V99.3541C115.99 99.7395 116.144 100.109 116.417 100.382C116.691 100.654 117.062 100.807 117.449 100.807C117.836 100.807 118.207 100.654 118.481 100.382C118.754 100.109 118.908 99.7395 118.908 99.3541V98.8143C120.07 98.7597 121.164 98.2553 121.958 97.4087C122.752 96.562 123.182 95.4401 123.157 94.2819C123.133 93.1238 122.655 92.0211 121.825 91.2089C120.996 90.3967 119.881 89.9393 118.718 89.934H116.181C115.976 89.9374 115.772 89.9001 115.582 89.8243C115.391 89.7484 115.218 89.6356 115.072 89.4924C114.926 89.3492 114.81 89.1785 114.73 88.9902C114.651 88.8019 114.61 88.5997 114.61 88.3955C114.61 88.1913 114.651 87.9892 114.73 87.8008C114.81 87.6125 114.926 87.4418 115.072 87.2986C115.218 87.1554 115.391 87.0426 115.582 86.9668C115.772 86.8909 115.976 86.8536 116.181 86.857H118.807C119.108 86.8571 119.402 86.9501 119.649 87.1231C119.895 87.2961 120.081 87.5408 120.183 87.8236C120.247 88.0035 120.346 88.1691 120.474 88.311C120.602 88.4528 120.757 88.5681 120.93 88.6502C121.103 88.7324 121.291 88.7798 121.482 88.7898C121.673 88.7998 121.865 88.7721 122.046 88.7084C122.226 88.6446 122.392 88.5461 122.535 88.4183C122.677 88.2906 122.793 88.1361 122.876 87.9638C122.958 87.7915 123.006 87.6047 123.016 87.4141C123.026 87.2235 122.998 87.0328 122.934 86.8528C122.636 86.0213 122.093 85.2992 121.375 84.7818C120.657 84.2644 119.798 83.9761 118.912 83.9547V83.4224C118.912 83.037 118.758 82.6674 118.485 82.3949C118.211 82.1223 117.84 81.9692 117.453 81.9692C117.066 81.9692 116.695 82.1223 116.421 82.3949C116.148 82.6674 115.994 83.037 115.994 83.4224V83.9622C114.832 84.0168 113.738 84.5212 112.944 85.3679C112.15 86.2146 111.72 87.3367 111.745 88.4948C111.77 89.653 112.248 90.7557 113.077 91.5678C113.906 92.38 115.021 92.8374 116.184 92.8425L116.182 92.8413Z" fill="#FFCC80"/>
<path d="M108.022 110.377H126.885C127.272 110.377 127.643 110.224 127.916 109.951C128.19 109.679 128.344 109.309 128.344 108.924C128.344 108.538 128.19 108.169 127.916 107.896C127.643 107.624 127.272 107.47 126.885 107.47H108.022C107.635 107.47 107.263 107.624 106.99 107.896C106.716 108.169 106.562 108.538 106.562 108.924C106.562 109.309 106.716 109.679 106.99 109.951C107.263 110.224 107.635 110.377 108.022 110.377Z" fill="#FFCC80"/>
<path d="M135.539 117.413H107.623C107.236 117.413 106.865 117.566 106.591 117.839C106.317 118.111 106.164 118.481 106.164 118.866C106.164 119.252 106.317 119.621 106.591 119.894C106.865 120.167 107.236 120.32 107.623 120.32H135.539C135.926 120.32 136.297 120.167 136.571 119.894C136.844 119.621 136.998 119.252 136.998 118.866C136.998 118.481 136.844 118.111 136.571 117.839C136.297 117.566 135.926 117.413 135.539 117.413Z" fill="#FFCC80"/>
<path d="M135.539 126.237H99.3384C98.9515 126.237 98.5804 126.39 98.3067 126.662C98.0331 126.935 97.8794 127.304 97.8794 127.69C97.8794 128.075 98.0331 128.445 98.3067 128.717C98.5804 128.99 98.9515 129.143 99.3384 129.143H135.539C135.926 129.143 136.297 128.99 136.57 128.717C136.844 128.445 136.998 128.075 136.998 127.69C136.998 127.304 136.844 126.935 136.57 126.662C136.297 126.39 135.926 126.237 135.539 126.237Z" fill="#FFCC80"/>
<path d="M135.539 135.06H99.3384C98.9515 135.06 98.5804 135.213 98.3067 135.486C98.0331 135.758 97.8794 136.128 97.8794 136.513C97.8794 136.899 98.0331 137.268 98.3067 137.541C98.5804 137.813 98.9515 137.966 99.3384 137.966H135.539C135.926 137.966 136.297 137.813 136.57 137.541C136.844 137.268 136.998 136.899 136.998 136.513C136.998 136.128 136.844 135.758 136.57 135.486C136.297 135.213 135.926 135.06 135.539 135.06Z" fill="#FFCC80"/>
<path d="M99.3385 110.377C99.7254 110.377 100.097 110.224 100.37 109.951C100.644 109.679 100.798 109.309 100.798 108.924C100.798 108.538 100.644 108.169 100.37 107.896C100.097 107.624 99.7254 107.47 99.3385 107.47H98.5635C98.1766 107.47 97.8055 107.624 97.5318 107.896C97.2582 108.169 97.1045 108.538 97.1045 108.924C97.1045 109.309 97.2582 109.679 97.5318 109.951C97.8055 110.224 98.1766 110.377 98.5635 110.377H99.3385Z" fill="#FFCC80"/>
<path d="M135.539 110.377H136.314C136.701 110.377 137.072 110.224 137.346 109.951C137.619 109.679 137.773 109.309 137.773 108.924C137.773 108.538 137.619 108.169 137.346 107.896C137.072 107.624 136.701 107.47 136.314 107.47H135.539C135.152 107.47 134.781 107.624 134.507 107.896C134.234 108.169 134.08 108.538 134.08 108.924C134.08 109.309 134.234 109.679 134.507 109.951C134.781 110.224 135.152 110.377 135.539 110.377Z" fill="#FFCC80"/>
<path d="M79.457 167.416H129.569C129.782 167.931 130.044 168.426 130.349 168.894C130.698 169.423 131.104 169.914 131.558 170.357C127.628 176.081 125.347 182.849 125.248 183.149C125.166 183.395 125.151 183.658 125.206 183.911C125.26 184.165 125.382 184.399 125.557 184.589C125.733 184.78 125.957 184.921 126.205 184.997C126.454 185.073 126.718 185.081 126.971 185.021C128.391 184.673 129.833 184.426 131.288 184.282L133.41 188.229C133.535 188.461 133.72 188.655 133.946 188.79C134.173 188.925 134.432 188.997 134.696 188.997C134.738 188.997 134.779 188.997 134.823 188.991C135.108 188.966 135.379 188.859 135.603 188.682C135.826 188.505 135.993 188.267 136.082 187.997C137.443 183.833 139.348 179.865 141.75 176.197C143.187 177.135 144.867 177.635 146.585 177.635C148.304 177.635 149.984 177.135 151.421 176.197C153.824 179.866 155.731 183.834 157.091 188C157.18 188.27 157.347 188.509 157.57 188.685C157.794 188.862 158.065 188.969 158.35 188.994C158.392 188.998 158.433 189 158.477 189C158.741 189 159 188.928 159.227 188.793C159.453 188.658 159.638 188.464 159.763 188.233L161.886 184.285C163.34 184.43 164.783 184.676 166.202 185.024C166.455 185.084 166.72 185.076 166.968 185C167.217 184.924 167.44 184.784 167.616 184.593C167.792 184.402 167.913 184.168 167.968 183.915C168.022 183.662 168.008 183.398 167.926 183.153C167.826 182.852 165.55 176.094 161.622 170.37C163.214 168.798 164.15 166.684 164.242 164.454C164.334 162.223 163.575 160.04 162.119 158.343C163.252 157.036 163.977 155.428 164.204 153.716C164.431 152.003 164.149 150.263 163.394 148.708C162.64 147.153 161.444 145.852 159.956 144.966C158.468 144.08 156.752 143.646 155.02 143.72V66.4532C155.02 66.0678 154.866 65.6982 154.592 65.4256C154.319 65.1531 153.947 65 153.56 65H100.156C100.15 65 100.144 65 100.138 65C100.054 65.0006 99.9705 65.0085 99.888 65.0237C99.8747 65.0262 99.8622 65.0307 99.8484 65.0336C99.7802 65.0483 99.7132 65.0678 99.6479 65.0922C99.6241 65.1009 99.6012 65.1109 99.5783 65.1208C99.5219 65.1449 99.4672 65.1727 99.4145 65.2039C99.3936 65.2159 99.3728 65.2271 99.3528 65.2404C99.2818 65.2862 99.2151 65.3381 99.1535 65.3957L78.454 84.9101C78.4486 84.9151 78.4444 84.9213 78.439 84.9267C78.4219 84.9433 78.4073 84.9616 78.391 84.979C78.351 85.0212 78.3136 85.0657 78.2789 85.1123C78.2714 85.1227 78.2622 85.1326 78.2547 85.1434C78.2472 85.1542 78.2351 85.1771 78.2247 85.1941C78.1937 85.2444 78.1658 85.2965 78.1413 85.3502C78.1342 85.3652 78.1242 85.3784 78.118 85.3917C78.1117 85.405 78.1113 85.4117 78.1071 85.4212C78.0756 85.4987 78.0506 85.5787 78.0325 85.6604C78.0292 85.677 78.0283 85.6936 78.0254 85.7098C78.0128 85.7812 78.0055 85.8536 78.0038 85.9261C78.0038 85.939 78 85.9506 78 85.9639V165.961C77.9997 166.151 78.0372 166.34 78.1103 166.517C78.1833 166.693 78.2906 166.854 78.4259 166.989C78.5612 167.124 78.7218 167.231 78.8988 167.304C79.0757 167.378 79.2653 167.416 79.457 167.416ZM143.83 84.0224C141.89 83.7122 140.097 82.8 138.707 81.4159C137.318 80.0317 136.402 78.2461 136.09 76.3134H143.83V84.0224ZM133.147 76.3125C133.477 79.0202 134.709 81.5395 136.646 83.4681C138.582 85.3968 141.112 86.6236 143.83 86.9529V139.41C141.633 140.129 139.802 141.67 138.723 143.707C137.185 143.55 135.632 143.794 134.218 144.417C132.803 145.04 131.577 146.02 130.659 147.259C129.741 148.499 129.164 149.956 128.985 151.486C128.805 153.015 129.03 154.565 129.636 155.982H99.4074C99.0766 153.275 97.8447 150.756 95.9083 148.827C93.9719 146.899 91.4427 145.672 88.7243 145.342V92.8413H100.156C100.543 92.8413 100.914 92.6882 101.188 92.4156C101.461 92.1431 101.615 91.7735 101.615 91.3881V76.3125H133.147ZM88.7243 148.273C90.6648 148.584 92.4576 149.496 93.8473 150.88C95.237 152.264 96.1528 154.05 96.4643 155.982H88.7243V148.273ZM98.697 69.8292V84.5128H83.1208L83.9716 83.7106L98.697 69.8292ZM80.916 164.509V92.8413H85.8063V157.436C85.8063 157.821 85.96 158.191 86.2336 158.463C86.5072 158.736 86.8783 158.889 87.2653 158.889H130.554C129.374 160.519 128.791 162.503 128.902 164.509H80.916ZM160.383 149.296C161.204 150.533 161.53 152.031 161.294 153.494C161.059 154.958 160.281 156.28 159.114 157.199C158.942 157.335 158.804 157.507 158.709 157.703C158.614 157.899 158.564 158.114 158.563 158.332C158.563 158.55 158.611 158.765 158.705 158.961C158.799 159.158 158.937 159.331 159.107 159.468C160.164 160.317 160.899 161.5 161.189 162.821C161.48 164.142 161.309 165.523 160.705 166.734C160.101 167.945 159.099 168.915 157.867 169.483C156.634 170.051 155.244 170.182 153.926 169.856C153.575 169.77 153.204 169.816 152.886 169.987C152.567 170.157 152.324 170.439 152.202 170.778C151.788 171.936 151.023 172.937 150.013 173.644C149.003 174.351 147.798 174.728 146.564 174.723C145.33 174.719 144.128 174.333 143.123 173.619C142.119 172.905 141.362 171.898 140.956 170.737C140.836 170.394 140.592 170.109 140.272 169.937C139.952 169.765 139.579 169.718 139.226 169.805C137.905 170.135 136.51 170.004 135.274 169.434C134.038 168.865 133.035 167.891 132.431 166.675C131.828 165.459 131.66 164.074 131.956 162.75C132.253 161.426 132.995 160.243 134.06 159.398C134.231 159.262 134.369 159.09 134.465 158.894C134.56 158.698 134.61 158.483 134.61 158.265C134.611 158.047 134.562 157.832 134.468 157.636C134.374 157.439 134.237 157.266 134.067 157.129C133.009 156.28 132.274 155.097 131.983 153.776C131.692 152.455 131.863 151.074 132.467 149.862C133.072 148.651 134.073 147.681 135.306 147.113C136.539 146.545 137.929 146.414 139.247 146.74C139.598 146.827 139.969 146.78 140.287 146.61C140.606 146.439 140.85 146.157 140.971 145.818C141.385 144.66 142.15 143.659 143.16 142.952C144.17 142.245 145.375 141.868 146.609 141.873C147.843 141.877 149.046 142.263 150.05 142.977C151.055 143.692 151.812 144.699 152.217 145.86C152.337 146.202 152.581 146.487 152.901 146.659C153.221 146.832 153.594 146.879 153.947 146.791C155.149 146.493 156.413 146.574 157.566 147.023C158.719 147.472 159.703 148.266 160.383 149.296ZM152.101 140.887C150.577 139.679 148.695 139.006 146.748 138.97V74.8593C146.748 74.4739 146.594 74.1043 146.32 73.8318C146.047 73.5593 145.676 73.4061 145.289 73.4061H101.615V67.9064H152.101V140.887Z" fill="#3C4852"/>
<path d="M146.587 148.865C144.714 148.865 142.882 149.419 141.325 150.455C139.767 151.492 138.553 152.965 137.836 154.689C137.119 156.412 136.932 158.309 137.297 160.139C137.663 161.969 138.565 163.65 139.889 164.969C141.214 166.288 142.901 167.187 144.739 167.551C146.576 167.915 148.48 167.728 150.211 167.014C151.941 166.3 153.421 165.091 154.461 163.54C155.502 161.988 156.058 160.165 156.058 158.299C156.055 155.798 155.056 153.4 153.281 151.632C151.505 149.863 149.098 148.868 146.587 148.865ZM146.587 164.826C145.291 164.826 144.024 164.443 142.946 163.726C141.868 163.009 141.028 161.99 140.532 160.797C140.036 159.604 139.906 158.292 140.159 157.026C140.412 155.76 141.036 154.597 141.953 153.684C142.869 152.771 144.037 152.149 145.308 151.897C146.579 151.645 147.897 151.775 149.094 152.269C150.292 152.763 151.315 153.599 152.035 154.673C152.755 155.746 153.14 157.008 153.14 158.299C153.138 160.029 152.447 161.688 151.218 162.912C149.99 164.135 148.324 164.824 146.587 164.826Z" fill="#FFCC80"/>
</svg>
