<svg width="247" height="247" viewBox="0 0 247 247" fill="none" xmlns="http://www.w3.org/2000/svg">
<circle cx="123.5" cy="123.5" r="123.5" fill="#F8F8F8"/>
<g clip-path="url(#clip0_22_162)">
<path d="M167.067 81.2689H156.679C156.41 81.2683 156.144 81.3232 155.898 81.43C155.651 81.5369 155.429 81.6936 155.245 81.8903C155.061 82.0869 154.92 82.3194 154.829 82.5733C154.739 82.8271 154.702 83.0969 154.72 83.3658C154.757 83.8768 154.987 84.3543 155.363 84.7006C155.74 85.0469 156.234 85.2359 156.745 85.229H157.575C157.834 85.2332 158.084 85.3291 158.279 85.4997C158.475 85.6703 158.604 85.9047 158.644 86.1616C158.684 86.4184 158.632 86.6812 158.498 86.9036C158.364 87.126 158.156 87.2937 157.91 87.3771C157.328 87.5393 156.719 87.5764 156.122 87.4857C155.525 87.3951 154.954 87.1788 154.446 86.8512C153.938 86.5235 153.505 86.0918 153.175 85.5845C152.845 85.0771 152.626 84.5055 152.532 83.9072C152.438 83.3089 152.471 82.6974 152.629 82.1128C152.787 81.5283 153.067 80.9839 153.449 80.5153C153.832 80.0468 154.309 79.6647 154.85 79.3941C155.39 79.1236 155.981 78.9707 156.584 78.9455C157.081 78.9555 157.563 78.7825 157.94 78.4592C158.318 78.136 158.564 77.685 158.631 77.1919C158.662 76.9163 158.634 76.6372 158.55 76.373C158.466 76.1088 158.328 75.8653 158.143 75.6585C157.959 75.4516 157.734 75.2861 157.481 75.1726C157.229 75.0592 156.956 75.0003 156.679 75C155.207 75.0001 153.762 75.3977 152.495 76.151C151.229 76.9044 150.188 77.9857 149.482 79.2816C149.141 79.8886 148.645 80.393 148.044 80.7425C147.443 81.0919 146.76 81.2737 146.066 81.2689H134.294C133.786 81.2614 133.294 81.4472 132.917 81.7888C132.54 82.1303 132.306 82.6024 132.262 83.1101C132.242 83.3812 132.278 83.6535 132.368 83.91C132.458 84.1665 132.599 84.4016 132.784 84.6005C132.969 84.7995 133.192 84.958 133.441 85.0661C133.69 85.1743 133.958 85.2297 134.229 85.229H135.125C135.374 85.2452 135.61 85.346 135.795 85.5148C135.979 85.6836 136.101 85.9103 136.14 86.1577C136.179 86.4051 136.133 86.6584 136.009 86.876C135.886 87.0937 135.692 87.2626 135.46 87.3552C134.948 87.5089 134.411 87.5634 133.879 87.5159C132.795 87.4111 131.792 86.8963 131.073 86.0761C130.354 85.2559 129.974 84.1919 130.009 83.1004C130.044 82.0089 130.493 80.9718 131.263 80.2C132.033 79.4282 133.068 78.9797 134.156 78.9455C134.65 78.9519 135.129 78.7772 135.503 78.4543C135.877 78.1314 136.121 77.6825 136.188 77.1919C136.219 76.9163 136.191 76.6372 136.107 76.373C136.023 76.1088 135.885 75.8653 135.7 75.6585C135.516 75.4516 135.291 75.2861 135.038 75.1726C134.786 75.0592 134.513 75.0003 134.236 75C132.763 75.0003 131.317 75.3979 130.049 76.1512C128.782 76.9044 127.74 77.9856 127.032 79.2816C126.693 79.8885 126.198 80.3931 125.598 80.7426C124.999 81.0922 124.316 81.2739 123.623 81.2689H111.844C111.336 81.2614 110.844 81.4472 110.467 81.7888C110.09 82.1303 109.856 82.6024 109.812 83.1101C109.791 83.3808 109.826 83.653 109.915 83.9095C110.004 84.1659 110.145 84.4011 110.329 84.6002C110.513 84.7993 110.736 84.9579 110.984 85.0661C111.233 85.1744 111.501 85.2298 111.771 85.229H112.667C112.926 85.2332 113.176 85.3291 113.371 85.4997C113.567 85.6703 113.696 85.9047 113.736 86.1616C113.776 86.4184 113.725 86.6812 113.59 86.9036C113.456 87.126 113.248 87.2937 113.002 87.3771C112.419 87.5404 111.808 87.5779 111.209 87.487C110.611 87.3961 110.038 87.1789 109.529 86.8498C109.02 86.5207 108.587 86.0871 108.257 85.5776C107.928 85.0681 107.71 84.4943 107.617 83.8941C107.525 83.2939 107.561 82.6809 107.722 82.0954C107.883 81.51 108.166 80.9656 108.552 80.4979C108.939 80.0303 109.42 79.6502 109.963 79.3826C110.507 79.115 111.101 78.966 111.706 78.9455C112.197 78.9499 112.674 78.7742 113.045 78.4513C113.417 78.1284 113.658 77.6806 113.723 77.1919C113.754 76.9163 113.727 76.6372 113.643 76.373C113.559 76.1088 113.42 75.8653 113.236 75.6585C113.051 75.4516 112.826 75.2861 112.573 75.1726C112.321 75.0592 112.048 75.0003 111.771 75C110.299 75.0016 108.855 75.3999 107.589 76.1531C106.323 76.9062 105.282 77.9867 104.574 79.2816C104.234 79.8891 103.738 80.3939 103.137 80.7435C102.536 81.093 101.853 81.2745 101.158 81.2689H89.3866C88.8831 81.2671 88.3974 81.4556 88.0262 81.7968C87.655 82.138 87.4255 82.6069 87.3834 83.1101C87.3624 83.379 87.3968 83.6493 87.4844 83.9043C87.5721 84.1593 87.7111 84.3934 87.8929 84.5922C88.0746 84.7909 88.2952 84.95 88.5409 85.0596C88.7866 85.1691 89.0522 85.2268 89.321 85.229H90.217C90.482 85.2235 90.7399 85.3148 90.9428 85.4858C91.1457 85.6569 91.2796 85.8961 91.3197 86.1589C91.3598 86.4217 91.3033 86.6901 91.1608 86.9142C91.0182 87.1383 90.7993 87.3028 90.5448 87.3771C90.0328 87.5308 89.4964 87.5853 88.9641 87.5378C88.4016 87.5191 87.8483 87.3895 87.3358 87.1563C86.8233 86.9231 86.3616 86.5909 85.977 86.1787C85.2004 85.3463 84.7853 84.2386 84.823 83.0992C84.8606 81.9597 85.348 80.882 86.1779 80.103C87.0078 79.3241 88.1122 78.9077 89.2482 78.9455C89.7406 78.9501 90.2178 78.7746 90.5905 78.4519C90.9632 78.1291 91.2059 77.6812 91.2732 77.1919C91.3039 76.9163 91.2764 76.6372 91.1923 76.373C91.1083 76.1088 90.9696 75.8653 90.7854 75.6585C90.6012 75.4516 90.3755 75.2861 90.1232 75.1726C89.8709 75.0592 89.5975 75.0003 89.321 75C87.4849 75.0029 85.7024 75.6215 84.2571 76.7574C82.8118 77.8933 81.7867 79.4813 81.3447 81.2689H78.9336C78.4155 81.2679 77.9024 81.3698 77.4238 81.5687C76.9452 81.7675 76.5105 82.0594 76.1448 82.4275C75.7792 82.7956 75.4898 83.2327 75.2933 83.7135C75.0968 84.1943 74.9972 84.7094 75.0001 85.229V168.055C75.0001 169.101 75.4145 170.104 76.1522 170.844C76.8898 171.584 77.8904 172 78.9336 172H167.074C168.117 172 169.118 171.584 169.855 170.844C170.593 170.104 171.007 169.101 171.007 168.055V85.229C171.01 84.7087 170.91 84.1931 170.713 83.7118C170.516 83.2305 170.226 82.7931 169.86 82.4249C169.494 82.0567 169.058 81.765 168.579 81.5665C168.099 81.3681 167.585 81.267 167.067 81.2689ZM167.067 156.225C167.067 159.363 165.824 162.371 163.612 164.59C161.401 166.808 158.401 168.055 155.273 168.055H90.7269C87.5991 168.055 84.5994 166.808 82.3878 164.59C80.1761 162.371 78.9336 159.363 78.9336 156.225V112.993C78.9394 109.86 80.1844 106.857 82.3955 104.643C84.6065 102.429 87.6029 101.186 90.7269 101.186H155.273C158.397 101.186 161.394 102.429 163.605 104.643C165.816 106.857 167.061 109.86 167.067 112.993V156.225ZM156.461 97.2407H89.5687C88.1732 97.2455 86.7905 96.9739 85.4999 96.4413C84.2093 95.9088 83.0363 95.1258 82.0482 94.1374C81.06 93.149 80.2762 91.9746 79.7417 90.6815C79.2073 89.3885 78.9326 88.0023 78.9336 86.6026C78.934 86.2773 79.0478 85.9624 79.2551 85.7123C79.4624 85.4621 79.7504 85.2925 80.0692 85.2327C80.3879 85.173 80.7175 85.2267 81.001 85.3848C81.2844 85.5429 81.5039 85.7953 81.6215 86.0984C82.1676 87.5808 83.1274 88.8742 84.3864 89.8243C85.6455 90.7745 87.1504 91.3411 88.7218 91.4566C90.2931 91.5722 91.8644 91.2318 93.2481 90.476C94.6318 89.7202 95.7694 88.581 96.5252 87.1944C96.8664 86.591 97.3626 86.0905 97.9622 85.7448C98.5618 85.3991 99.2428 85.221 99.9343 85.229H101.158C101.853 85.2234 102.536 85.4049 103.137 85.7544C103.738 86.104 104.234 86.6088 104.574 87.2163C105.282 88.5118 106.323 89.5927 107.59 90.3456C108.857 91.0985 110.302 91.4958 111.775 91.4958C113.247 91.4958 114.693 91.0985 115.96 90.3456C117.227 89.5927 118.268 88.5118 118.975 87.2163C119.314 86.6094 119.81 86.1048 120.409 85.7553C121.009 85.4057 121.691 85.2239 122.385 85.229H123.616C124.309 85.2239 124.991 85.4057 125.591 85.7553C126.191 86.1048 126.686 86.6094 127.025 87.2163C127.732 88.5118 128.774 89.5927 130.04 90.3456C131.307 91.0985 132.753 91.4958 134.225 91.4958C135.698 91.4958 137.143 91.0985 138.41 90.3456C139.677 89.5927 140.718 88.5118 141.426 87.2163C141.766 86.6088 142.262 86.104 142.863 85.7544C143.464 85.4049 144.147 85.2234 144.842 85.229H146.066C146.76 85.2242 147.443 85.406 148.044 85.7554C148.645 86.1049 149.141 86.6093 149.482 87.2163C150.237 88.6035 151.374 89.7433 152.757 90.4995C154.14 91.2558 155.711 91.5965 157.282 91.4809C158.853 91.3653 160.358 90.7983 161.617 89.8477C162.875 88.8971 163.834 87.6031 164.379 86.1204C164.496 85.8172 164.716 85.5648 164.999 85.4067C165.283 85.2487 165.612 85.1949 165.931 85.2547C166.25 85.3145 166.538 85.4841 166.745 85.7342C166.952 85.9843 167.066 86.2992 167.067 86.6245C167.063 89.4427 165.943 92.1441 163.955 94.1348C161.966 96.1255 159.27 97.2427 156.461 97.2407Z" fill="#3C4852"/>
<path d="M156.009 108.339H89.9912C88.9524 108.339 87.956 108.752 87.2201 109.487C86.4842 110.223 86.0688 111.221 86.0649 112.263V156.934C86.064 157.452 86.1648 157.965 86.3617 158.443C86.5586 158.922 86.8477 159.357 87.2123 159.724C87.577 160.09 88.0102 160.381 88.487 160.579C88.9638 160.778 89.475 160.88 89.9912 160.88H156.009C156.525 160.88 157.036 160.778 157.513 160.579C157.99 160.381 158.423 160.09 158.788 159.724C159.152 159.357 159.442 158.922 159.638 158.443C159.835 157.965 159.936 157.452 159.935 156.934V112.263C159.931 111.221 159.516 110.223 158.78 109.487C158.044 108.752 157.048 108.339 156.009 108.339ZM103.562 153.018C103.562 154.062 103.148 155.064 102.412 155.803C101.676 156.541 100.677 156.956 99.6356 156.956H93.9393C93.4231 156.957 92.9117 156.856 92.4345 156.658C91.9574 156.461 91.5237 156.171 91.1583 155.805C90.793 155.439 90.5031 155.005 90.3053 154.527C90.1076 154.048 90.0058 153.536 90.0058 153.018V148.634C90.0058 148.116 90.1076 147.604 90.3053 147.125C90.5031 146.647 90.793 146.213 91.1583 145.847C91.5237 145.481 91.9574 145.191 92.4345 144.994C92.9117 144.796 93.4231 144.695 93.9393 144.696H99.6211C100.662 144.696 101.661 145.111 102.397 145.849C103.134 146.588 103.547 147.59 103.547 148.634L103.562 153.018ZM103.562 136.812C103.563 137.331 103.462 137.845 103.264 138.325C103.066 138.805 102.776 139.24 102.409 139.607C102.043 139.974 101.608 140.264 101.13 140.461C100.651 140.659 100.138 140.76 99.6211 140.758H93.9393C93.4231 140.759 92.9117 140.658 92.4345 140.46C91.9574 140.263 91.5237 139.973 91.1583 139.607C90.793 139.241 90.5031 138.807 90.3053 138.328C90.1076 137.85 90.0058 137.337 90.0058 136.82V132.436C90.0048 131.917 90.1059 131.404 90.3032 130.925C90.5006 130.446 90.7903 130.01 91.1557 129.644C91.5212 129.277 91.9552 128.987 92.4329 128.789C92.9105 128.591 93.4225 128.489 93.9393 128.49H99.6211C100.662 128.49 101.661 128.905 102.397 129.644C103.134 130.382 103.547 131.384 103.547 132.428L103.562 136.812ZM103.562 120.607C103.562 121.651 103.148 122.653 102.412 123.391C101.676 124.13 100.677 124.545 99.6356 124.545H93.9393C93.4231 124.546 92.9117 124.445 92.4345 124.247C91.9574 124.05 91.5237 123.76 91.1583 123.394C90.793 123.028 90.5031 122.594 90.3053 122.115C90.1076 121.637 90.0058 121.124 90.0058 120.607V116.223C90.0029 115.703 90.1025 115.188 90.299 114.707C90.4955 114.226 90.7849 113.789 91.1505 113.421C91.5162 113.053 91.9509 112.761 92.4295 112.562C92.9081 112.364 93.4212 112.262 93.9393 112.263H99.6211C100.662 112.263 101.661 112.678 102.397 113.416C103.134 114.155 103.547 115.156 103.547 116.201L103.562 120.607ZM121.044 153.018C121.044 153.536 120.942 154.048 120.745 154.527C120.547 155.005 120.257 155.439 119.892 155.805C119.526 156.171 119.093 156.461 118.615 156.658C118.138 156.856 117.627 156.957 117.111 156.956H111.422C110.905 156.957 110.394 156.856 109.917 156.658C109.44 156.461 109.006 156.171 108.641 155.805C108.275 155.439 107.985 155.005 107.788 154.527C107.59 154.048 107.488 153.536 107.488 153.018V148.634C107.488 148.116 107.59 147.604 107.788 147.125C107.985 146.647 108.275 146.213 108.641 145.847C109.006 145.481 109.44 145.191 109.917 144.994C110.394 144.796 110.905 144.695 111.422 144.696H117.103C117.62 144.695 118.131 144.796 118.608 144.994C119.085 145.191 119.519 145.481 119.884 145.847C120.25 146.213 120.54 146.647 120.737 147.125C120.935 147.604 121.037 148.116 121.037 148.634L121.044 153.018ZM121.044 136.812C121.045 137.331 120.944 137.845 120.746 138.325C120.548 138.805 120.258 139.24 119.892 139.607C119.525 139.974 119.091 140.264 118.612 140.461C118.134 140.659 117.621 140.76 117.103 140.758H111.422C110.905 140.759 110.394 140.658 109.917 140.46C109.44 140.263 109.006 139.973 108.641 139.607C108.275 139.241 107.985 138.807 107.788 138.328C107.59 137.85 107.488 137.337 107.488 136.82V132.436C107.487 131.917 107.588 131.404 107.786 130.925C107.983 130.446 108.273 130.01 108.638 129.644C109.004 129.277 109.438 128.987 109.915 128.789C110.393 128.591 110.905 128.489 111.422 128.49H117.103C117.62 128.489 118.131 128.59 118.608 128.788C119.085 128.985 119.519 129.275 119.884 129.641C120.25 130.007 120.54 130.441 120.737 130.92C120.935 131.398 121.037 131.911 121.037 132.428L121.044 136.812ZM121.044 120.607C121.044 121.124 120.942 121.637 120.745 122.115C120.547 122.594 120.257 123.028 119.892 123.394C119.526 123.76 119.093 124.05 118.615 124.247C118.138 124.445 117.627 124.546 117.111 124.545H111.422C110.905 124.546 110.394 124.445 109.917 124.247C109.44 124.05 109.006 123.76 108.641 123.394C108.275 123.028 107.985 122.594 107.788 122.115C107.59 121.637 107.488 121.124 107.488 120.607V116.223C107.485 115.703 107.585 115.188 107.781 114.707C107.978 114.226 108.267 113.789 108.633 113.421C108.999 113.053 109.433 112.761 109.912 112.562C110.39 112.364 110.904 112.262 111.422 112.263H117.103C117.62 112.262 118.131 112.363 118.608 112.56C119.085 112.758 119.519 113.048 119.884 113.414C120.25 113.779 120.54 114.214 120.737 114.692C120.935 115.17 121.037 115.683 121.037 116.201L121.044 120.607ZM138.527 153.018C138.527 153.536 138.425 154.048 138.227 154.527C138.029 155.005 137.739 155.439 137.374 155.805C137.009 156.171 136.575 156.461 136.098 156.658C135.621 156.856 135.109 156.957 134.593 156.956H128.904C128.388 156.957 127.876 156.856 127.399 156.658C126.922 156.461 126.488 156.171 126.123 155.805C125.758 155.439 125.468 155.005 125.27 154.527C125.072 154.048 124.97 153.536 124.97 153.018V148.634C124.97 148.116 125.072 147.604 125.27 147.125C125.468 146.647 125.758 146.213 126.123 145.847C126.488 145.481 126.922 145.191 127.399 144.994C127.876 144.796 128.388 144.695 128.904 144.696H134.586C135.102 144.695 135.613 144.796 136.091 144.994C136.568 145.191 137.001 145.481 137.367 145.847C137.732 146.213 138.022 146.647 138.22 147.125C138.418 147.604 138.519 148.116 138.519 148.634L138.527 153.018ZM138.527 136.812C138.528 137.331 138.426 137.845 138.228 138.325C138.031 138.805 137.74 139.24 137.374 139.607C137.008 139.974 136.573 140.264 136.094 140.461C135.616 140.659 135.103 140.76 134.586 140.758H128.904C128.388 140.759 127.876 140.658 127.399 140.46C126.922 140.263 126.488 139.973 126.123 139.607C125.758 139.241 125.468 138.807 125.27 138.328C125.072 137.85 124.97 137.337 124.97 136.82V132.436C124.97 131.917 125.071 131.404 125.268 130.925C125.465 130.446 125.755 130.01 126.12 129.644C126.486 129.277 126.92 128.987 127.398 128.789C127.875 128.591 128.387 128.489 128.904 128.49H134.586C135.102 128.489 135.613 128.59 136.091 128.788C136.568 128.985 137.001 129.275 137.367 129.641C137.732 130.007 138.022 130.441 138.22 130.92C138.418 131.398 138.519 131.911 138.519 132.428L138.527 136.812ZM138.527 120.607C138.527 121.124 138.425 121.637 138.227 122.115C138.029 122.594 137.739 123.028 137.374 123.394C137.009 123.76 136.575 124.05 136.098 124.247C135.621 124.445 135.109 124.546 134.593 124.545H128.904C128.388 124.546 127.876 124.445 127.399 124.247C126.922 124.05 126.488 123.76 126.123 123.394C125.758 123.028 125.468 122.594 125.27 122.115C125.072 121.637 124.97 121.124 124.97 120.607V116.223C124.968 115.703 125.067 115.188 125.264 114.707C125.46 114.226 125.75 113.789 126.115 113.421C126.481 113.053 126.916 112.761 127.394 112.562C127.873 112.364 128.386 112.262 128.904 112.263H134.586C135.102 112.262 135.613 112.363 136.091 112.56C136.568 112.758 137.001 113.048 137.367 113.414C137.732 113.779 138.022 114.214 138.22 114.692C138.418 115.17 138.519 115.683 138.519 116.201L138.527 120.607ZM156.009 153.018C156.009 153.536 155.907 154.048 155.709 154.527C155.512 155.005 155.222 155.439 154.856 155.805C154.491 156.171 154.057 156.461 153.58 156.658C153.103 156.856 152.592 156.957 152.075 156.956H146.386C145.345 156.956 144.346 156.541 143.61 155.803C142.874 155.064 142.46 154.062 142.46 153.018V148.634C142.46 147.59 142.874 146.588 143.61 145.849C144.346 145.111 145.345 144.696 146.386 144.696H152.083C152.599 144.695 153.11 144.796 153.587 144.994C154.065 145.191 154.498 145.481 154.864 145.847C155.229 146.213 155.519 146.647 155.717 147.125C155.914 147.604 156.016 148.116 156.016 148.634L156.009 153.018ZM156.009 136.812C156.009 137.33 155.907 137.843 155.709 138.321C155.512 138.799 155.222 139.234 154.856 139.6C154.491 139.965 154.057 140.255 153.58 140.453C153.103 140.65 152.592 140.751 152.075 140.75H146.386C145.87 140.751 145.359 140.65 144.882 140.453C144.404 140.255 143.971 139.965 143.605 139.6C143.24 139.234 142.95 138.799 142.752 138.321C142.555 137.843 142.453 137.33 142.453 136.812V132.428C142.453 131.911 142.555 131.398 142.752 130.92C142.95 130.441 143.24 130.007 143.605 129.641C143.971 129.275 144.404 128.985 144.882 128.788C145.359 128.59 145.87 128.489 146.386 128.49H152.083C152.599 128.489 153.11 128.59 153.587 128.788C154.065 128.985 154.498 129.275 154.864 129.641C155.229 130.007 155.519 130.441 155.717 130.92C155.914 131.398 156.016 131.911 156.016 132.428L156.009 136.812ZM156.009 120.607C156.009 121.124 155.907 121.637 155.709 122.115C155.512 122.594 155.222 123.028 154.856 123.394C154.491 123.76 154.057 124.05 153.58 124.247C153.103 124.445 152.592 124.546 152.075 124.545H146.386C145.345 124.545 144.346 124.13 143.61 123.391C142.874 122.653 142.46 121.651 142.46 120.607V116.223C142.457 115.704 142.557 115.189 142.753 114.709C142.949 114.229 143.237 113.792 143.602 113.424C143.967 113.056 144.401 112.764 144.879 112.565C145.357 112.365 145.869 112.263 146.386 112.263H152.083C152.599 112.262 153.11 112.363 153.587 112.56C154.065 112.758 154.498 113.048 154.864 113.414C155.229 113.779 155.519 114.214 155.717 114.692C155.914 115.17 156.016 115.683 156.016 116.201L156.009 120.607Z" fill="#FFCC80"/>
</g>
<defs>
<clipPath id="clip0_22_162">
<rect width="96" height="97" fill="white" transform="translate(75 75)"/>
</clipPath>
</defs>
</svg>
